<mxfile host="app.diagrams.net" modified="2020-12-31T05:09:05.540Z" agent="5.0 (X11)" etag="XVhbM8TZSP_KFoKFyREy" version="14.1.4" type="github">
  <diagram id="muspsq0wNclhOc-cF3wE" name="Page-1">
    <mxGraphModel dx="1216" dy="767" grid="1" gridSize="10" guides="1" tooltips="1" connect="1" arrows="1" fold="1" page="1" pageScale="1" pageWidth="850" pageHeight="1100" math="0" shadow="0">
      <root>
        <mxCell id="0" />
        <mxCell id="1" parent="0" />
        <mxCell id="I-AvVpsKXz01nL_moDOW-36" value="" style="rounded=0;whiteSpace=wrap;html=1;fillColor=none;" vertex="1" parent="1">
          <mxGeometry x="440" y="560" width="200" height="400" as="geometry" />
        </mxCell>
        <mxCell id="I-AvVpsKXz01nL_moDOW-1" value="" style="shape=cube;whiteSpace=wrap;html=1;boundedLbl=1;backgroundOutline=1;darkOpacity=0.05;darkOpacity2=0.1;" vertex="1" parent="1">
          <mxGeometry x="220" y="220" width="100" height="100" as="geometry" />
        </mxCell>
        <mxCell id="I-AvVpsKXz01nL_moDOW-2" value="" style="shape=cube;whiteSpace=wrap;html=1;boundedLbl=1;backgroundOutline=1;darkOpacity=0.05;darkOpacity2=0.1;" vertex="1" parent="1">
          <mxGeometry x="500" y="140" width="100" height="180" as="geometry" />
        </mxCell>
        <mxCell id="I-AvVpsKXz01nL_moDOW-3" value="" style="endArrow=none;dashed=1;html=1;dashPattern=1 3;strokeWidth=2;" edge="1" parent="1">
          <mxGeometry width="50" height="50" relative="1" as="geometry">
            <mxPoint x="280" y="360" as="sourcePoint" />
            <mxPoint x="280" y="200" as="targetPoint" />
          </mxGeometry>
        </mxCell>
        <mxCell id="I-AvVpsKXz01nL_moDOW-4" value="" style="endArrow=none;dashed=1;html=1;dashPattern=1 3;strokeWidth=2;" edge="1" parent="1">
          <mxGeometry width="50" height="50" relative="1" as="geometry">
            <mxPoint x="360" y="280" as="sourcePoint" />
            <mxPoint x="200" y="280" as="targetPoint" />
          </mxGeometry>
        </mxCell>
        <mxCell id="I-AvVpsKXz01nL_moDOW-5" value="" style="endArrow=none;dashed=1;html=1;dashPattern=1 3;strokeWidth=2;" edge="1" parent="1">
          <mxGeometry width="50" height="50" relative="1" as="geometry">
            <mxPoint x="560" y="320" as="sourcePoint" />
            <mxPoint x="560" y="160" as="targetPoint" />
          </mxGeometry>
        </mxCell>
        <mxCell id="I-AvVpsKXz01nL_moDOW-6" value="" style="endArrow=none;dashed=1;html=1;dashPattern=1 3;strokeWidth=2;" edge="1" parent="1">
          <mxGeometry width="50" height="50" relative="1" as="geometry">
            <mxPoint x="640" y="240" as="sourcePoint" />
            <mxPoint x="480" y="240" as="targetPoint" />
          </mxGeometry>
        </mxCell>
        <mxCell id="I-AvVpsKXz01nL_moDOW-7" value="" style="endArrow=classic;html=1;" edge="1" parent="1">
          <mxGeometry width="50" height="50" relative="1" as="geometry">
            <mxPoint x="160" y="320" as="sourcePoint" />
            <mxPoint x="160" y="40" as="targetPoint" />
          </mxGeometry>
        </mxCell>
        <mxCell id="I-AvVpsKXz01nL_moDOW-8" value="" style="endArrow=classic;html=1;" edge="1" parent="1">
          <mxGeometry width="50" height="50" relative="1" as="geometry">
            <mxPoint x="160" y="320" as="sourcePoint" />
            <mxPoint x="760" y="320" as="targetPoint" />
          </mxGeometry>
        </mxCell>
        <mxCell id="I-AvVpsKXz01nL_moDOW-9" value="&lt;div&gt;min&lt;/div&gt;&lt;div&gt;1/-1/1&lt;br&gt;&lt;/div&gt;" style="text;html=1;strokeColor=none;fillColor=none;align=center;verticalAlign=middle;whiteSpace=wrap;rounded=0;" vertex="1" parent="1">
          <mxGeometry x="200" y="330" width="40" height="20" as="geometry" />
        </mxCell>
        <mxCell id="I-AvVpsKXz01nL_moDOW-10" value="&lt;div&gt;max&lt;/div&gt;&lt;div&gt;2/0/2&lt;br&gt;&lt;/div&gt;" style="text;html=1;strokeColor=none;fillColor=none;align=center;verticalAlign=middle;whiteSpace=wrap;rounded=0;" vertex="1" parent="1">
          <mxGeometry x="330" y="200" width="40" height="20" as="geometry" />
        </mxCell>
        <mxCell id="I-AvVpsKXz01nL_moDOW-11" value="center&lt;div&gt;1.5/-0.5/1.5&lt;br&gt;&lt;/div&gt;" style="text;html=1;strokeColor=none;fillColor=none;align=center;verticalAlign=middle;whiteSpace=wrap;rounded=0;" vertex="1" parent="1">
          <mxGeometry x="260" y="370" width="40" height="20" as="geometry" />
        </mxCell>
        <mxCell id="I-AvVpsKXz01nL_moDOW-12" value="&lt;div&gt;max&lt;/div&gt;&lt;div&gt;2/1/2&lt;br&gt;&lt;/div&gt;" style="text;html=1;strokeColor=none;fillColor=none;align=center;verticalAlign=middle;whiteSpace=wrap;rounded=0;" vertex="1" parent="1">
          <mxGeometry x="620" y="120" width="40" height="20" as="geometry" />
        </mxCell>
        <mxCell id="I-AvVpsKXz01nL_moDOW-13" value="center&lt;div&gt;1.5/0.0/1.5&lt;br&gt;&lt;/div&gt;" style="text;html=1;strokeColor=none;fillColor=none;align=center;verticalAlign=middle;whiteSpace=wrap;rounded=0;" vertex="1" parent="1">
          <mxGeometry x="545" y="360" width="40" height="20" as="geometry" />
        </mxCell>
        <mxCell id="I-AvVpsKXz01nL_moDOW-14" value="" style="whiteSpace=wrap;html=1;aspect=fixed;fillColor=none;" vertex="1" parent="1">
          <mxGeometry x="160" y="840" width="200" height="200" as="geometry" />
        </mxCell>
        <mxCell id="I-AvVpsKXz01nL_moDOW-15" value="" style="whiteSpace=wrap;html=1;aspect=fixed;fillColor=none;" vertex="1" parent="1">
          <mxGeometry x="80" y="760" width="200" height="200" as="geometry" />
        </mxCell>
        <mxCell id="I-AvVpsKXz01nL_moDOW-16" value="1/0/1" style="text;html=1;strokeColor=none;fillColor=none;align=center;verticalAlign=middle;whiteSpace=wrap;rounded=0;" vertex="1" parent="1">
          <mxGeometry x="60" y="740" width="40" height="20" as="geometry" />
        </mxCell>
        <mxCell id="I-AvVpsKXz01nL_moDOW-17" value="1/0/2" style="text;html=1;strokeColor=none;fillColor=none;align=center;verticalAlign=middle;whiteSpace=wrap;rounded=0;" vertex="1" parent="1">
          <mxGeometry x="160" y="840" width="40" height="20" as="geometry" />
        </mxCell>
        <mxCell id="I-AvVpsKXz01nL_moDOW-18" value="2/0/2" style="text;html=1;strokeColor=none;fillColor=none;align=center;verticalAlign=middle;whiteSpace=wrap;rounded=0;" vertex="1" parent="1">
          <mxGeometry x="360" y="840" width="40" height="20" as="geometry" />
        </mxCell>
        <mxCell id="I-AvVpsKXz01nL_moDOW-19" value="2/0/1" style="text;html=1;strokeColor=none;fillColor=none;align=center;verticalAlign=middle;whiteSpace=wrap;rounded=0;" vertex="1" parent="1">
          <mxGeometry x="280" y="740" width="40" height="20" as="geometry" />
        </mxCell>
        <mxCell id="I-AvVpsKXz01nL_moDOW-20" value="1/-1/1" style="text;html=1;strokeColor=none;fillColor=none;align=center;verticalAlign=middle;whiteSpace=wrap;rounded=0;" vertex="1" parent="1">
          <mxGeometry x="60" y="960" width="40" height="20" as="geometry" />
        </mxCell>
        <mxCell id="I-AvVpsKXz01nL_moDOW-21" value="2/-1/1" style="text;html=1;strokeColor=none;fillColor=none;align=center;verticalAlign=middle;whiteSpace=wrap;rounded=0;" vertex="1" parent="1">
          <mxGeometry x="280" y="960" width="40" height="20" as="geometry" />
        </mxCell>
        <mxCell id="I-AvVpsKXz01nL_moDOW-22" value="1/-1/2" style="text;html=1;strokeColor=none;fillColor=none;align=center;verticalAlign=middle;whiteSpace=wrap;rounded=0;" vertex="1" parent="1">
          <mxGeometry x="160" y="1040" width="40" height="20" as="geometry" />
        </mxCell>
        <mxCell id="I-AvVpsKXz01nL_moDOW-23" value="2/-1/2" style="text;html=1;strokeColor=none;fillColor=none;align=center;verticalAlign=middle;whiteSpace=wrap;rounded=0;" vertex="1" parent="1">
          <mxGeometry x="360" y="1040" width="40" height="20" as="geometry" />
        </mxCell>
        <mxCell id="I-AvVpsKXz01nL_moDOW-24" value="&lt;div&gt;center:&lt;/div&gt;&lt;div&gt;1.5/-0.5/1.5&lt;br&gt;&lt;/div&gt;" style="text;html=1;strokeColor=none;fillColor=none;align=center;verticalAlign=middle;whiteSpace=wrap;rounded=0;" vertex="1" parent="1">
          <mxGeometry x="210" y="890" width="40" height="20" as="geometry" />
        </mxCell>
        <mxCell id="I-AvVpsKXz01nL_moDOW-27" value="1/1/1" style="text;html=1;strokeColor=none;fillColor=none;align=center;verticalAlign=middle;whiteSpace=wrap;rounded=0;" vertex="1" parent="1">
          <mxGeometry x="420" y="540" width="40" height="20" as="geometry" />
        </mxCell>
        <mxCell id="I-AvVpsKXz01nL_moDOW-28" value="1/1/2" style="text;html=1;strokeColor=none;fillColor=none;align=center;verticalAlign=middle;whiteSpace=wrap;rounded=0;" vertex="1" parent="1">
          <mxGeometry x="510" y="620" width="40" height="20" as="geometry" />
        </mxCell>
        <mxCell id="I-AvVpsKXz01nL_moDOW-29" value="2/1/2" style="text;html=1;strokeColor=none;fillColor=none;align=center;verticalAlign=middle;whiteSpace=wrap;rounded=0;" vertex="1" parent="1">
          <mxGeometry x="710" y="620" width="40" height="20" as="geometry" />
        </mxCell>
        <mxCell id="I-AvVpsKXz01nL_moDOW-30" value="2/1/1" style="text;html=1;strokeColor=none;fillColor=none;align=center;verticalAlign=middle;whiteSpace=wrap;rounded=0;" vertex="1" parent="1">
          <mxGeometry x="640" y="540" width="40" height="20" as="geometry" />
        </mxCell>
        <mxCell id="I-AvVpsKXz01nL_moDOW-31" value="1/-1/1" style="text;html=1;strokeColor=none;fillColor=none;align=center;verticalAlign=middle;whiteSpace=wrap;rounded=0;" vertex="1" parent="1">
          <mxGeometry x="420" y="960" width="40" height="20" as="geometry" />
        </mxCell>
        <mxCell id="I-AvVpsKXz01nL_moDOW-32" value="2/-1/1" style="text;html=1;strokeColor=none;fillColor=none;align=center;verticalAlign=middle;whiteSpace=wrap;rounded=0;" vertex="1" parent="1">
          <mxGeometry x="640" y="960" width="40" height="20" as="geometry" />
        </mxCell>
        <mxCell id="I-AvVpsKXz01nL_moDOW-33" value="1/-1/2" style="text;html=1;strokeColor=none;fillColor=none;align=center;verticalAlign=middle;whiteSpace=wrap;rounded=0;" vertex="1" parent="1">
          <mxGeometry x="520" y="1040" width="40" height="20" as="geometry" />
        </mxCell>
        <mxCell id="I-AvVpsKXz01nL_moDOW-34" value="2/-1/2" style="text;html=1;strokeColor=none;fillColor=none;align=center;verticalAlign=middle;whiteSpace=wrap;rounded=0;" vertex="1" parent="1">
          <mxGeometry x="720" y="1040" width="40" height="20" as="geometry" />
        </mxCell>
        <mxCell id="I-AvVpsKXz01nL_moDOW-35" value="&lt;div&gt;center:&lt;/div&gt;&lt;div&gt;1.5/0/1.5&lt;br&gt;&lt;/div&gt;" style="text;html=1;strokeColor=none;fillColor=none;align=center;verticalAlign=middle;whiteSpace=wrap;rounded=0;" vertex="1" parent="1">
          <mxGeometry x="570" y="812" width="40" height="20" as="geometry" />
        </mxCell>
        <mxCell id="I-AvVpsKXz01nL_moDOW-37" value="" style="rounded=0;whiteSpace=wrap;html=1;fillColor=none;" vertex="1" parent="1">
          <mxGeometry x="520" y="640" width="200" height="400" as="geometry" />
        </mxCell>
        <mxCell id="I-AvVpsKXz01nL_moDOW-38" value="" style="endArrow=classic;html=1;dashed=1;" edge="1" parent="1">
          <mxGeometry width="50" height="50" relative="1" as="geometry">
            <mxPoint x="10" y="840" as="sourcePoint" />
            <mxPoint x="800" y="840" as="targetPoint" />
          </mxGeometry>
        </mxCell>
      </root>
    </mxGraphModel>
  </diagram>
</mxfile>
